<svg width="32" height="32" viewBox="0 0 32 32" fill="none" xmlns="http://www.w3.org/2000/svg">
<g clip-path="url(#clip0_316_10)">
<path d="M21.366 17.16L21.3604 19.0952C21.3455 24.2357 15.6516 27.3256 11.3336 24.5365L5.80271 20.9639C4.19529 19.9256 3.22668 18.1407 3.23222 16.2271C3.2412 13.1235 5.76445 10.6148 8.86806 10.6238L14.8848 10.6412C18.4747 10.6516 21.3764 13.5702 21.366 17.16Z" stroke="#A86272"/>
<path d="M11.0581 23.1964L11.0525 25.1316C11.0376 30.272 16.7135 33.3948 21.0476 30.6308L26.5991 27.0902C28.2125 26.0613 29.1914 24.282 29.197 22.3684C29.2059 19.2648 26.6973 16.7416 23.5936 16.7326L17.5769 16.7152C13.9871 16.7048 11.0685 19.6065 11.0581 23.1964Z" stroke="#A86272"/>
<path d="M19.604 9.24871L19.6096 7.31346C19.6245 2.17302 13.9486 -0.949769 9.61449 1.81432L4.063 5.35483C2.44959 6.38379 1.47068 8.16304 1.46514 10.0766C1.45616 13.1802 3.96485 15.7035 7.06847 15.7125L13.0852 15.7299C16.6751 15.7403 19.5936 12.8385 19.604 9.24871Z" stroke="#A86272"/>
<path d="M12.7755 14.4152L12.7811 12.48C12.796 7.33956 18.4898 4.24967 22.8078 7.03878L28.3388 10.6114C29.9462 11.6496 30.9148 13.4345 30.9093 15.3481C30.9003 18.4517 28.377 20.9604 25.2734 20.9514L19.2567 20.934C15.6668 20.9236 12.7651 18.0051 12.7755 14.4152Z" stroke="#A86272"/>
</g>
<defs>
<clipPath id="clip0_316_10">
<rect width="32" height="32" fill="white"/>
</clipPath>
</defs>
</svg>
